<svg width="28" height="28" viewBox="0 0 28 28" fill="none" xmlns="http://www.w3.org/2000/svg">
<path d="M14.9335 22.8665C15.2293 23.0883 15.5735 23.2367 15.9379 23.2994C16.3023 23.3621 16.6763 23.3373 17.0292 23.227C17.3821 23.1168 17.7038 22.9243 17.9677 22.6653C18.2316 22.4064 18.4302 22.0885 18.5471 21.7377C18.664 21.387 18.6959 21.0134 18.6401 20.648C18.5844 20.2825 18.4426 19.9354 18.2264 19.6355C18.0102 19.3356 17.7259 19.0913 17.3968 18.9228C17.0676 18.7544 16.7032 18.6665 16.3335 18.6665H2.3335" stroke="white" stroke-width="2.33333" stroke-linecap="round" stroke-linejoin="round"/>
<path d="M20.4168 9.33317C20.7151 8.93544 21.1101 8.62056 21.5644 8.41843C22.0186 8.21631 22.5169 8.13364 23.0121 8.17829C23.5073 8.22294 23.9828 8.39342 24.3935 8.67354C24.8043 8.95366 25.1366 9.33412 25.3589 9.7788C25.5812 10.2235 25.6862 10.7176 25.6639 11.2143C25.6415 11.7109 25.4926 12.1936 25.2312 12.6166C24.9699 13.0395 24.6047 13.3885 24.1705 13.6307C23.7362 13.8728 23.2473 13.9998 22.7502 13.9998H2.3335" stroke="white" stroke-width="2.33333" stroke-linecap="round" stroke-linejoin="round"/>
<path d="M11.4335 5.13317C11.7293 4.91134 12.0735 4.76297 12.4379 4.70028C12.8023 4.6376 13.1763 4.6624 13.5292 4.77264C13.8821 4.88288 14.2038 5.0754 14.4677 5.33434C14.7316 5.59328 14.9302 5.91122 15.0471 6.26197C15.164 6.61272 15.1959 6.98623 15.1401 7.35172C15.0844 7.71722 14.9426 8.06423 14.7264 8.36416C14.5102 8.66409 14.2259 8.90836 13.8968 9.07684C13.5676 9.24531 13.2032 9.33317 12.8335 9.33317H2.3335" stroke="white" stroke-width="2.33333" stroke-linecap="round" stroke-linejoin="round"/>
</svg>
